HIERARCHY
ROOT Hips
{
    OFFSET 13.234065055847168 79.2879638671875 -18.164512634277344
    CHANNELS 6 Xposition Yposition Zposition Zrotation Xrotation Yrotation
    JOINT RightUpLeg
    {
        OFFSET -13.234065055847168 0.0 0.0
        CHANNELS 3 Zrotation Xrotation Yrotation
        JOINT RightLeg
        {
            OFFSET 0.0 -33.876686096191406 0.0
            CHANNELS 3 Zrotation Xrotation Yrotation
            JOINT RightFoot
            {
                OFFSET 0.0 -45.411277770996094 0.0
                CHANNELS 3 Zrotation Xrotation Yrotation
                End Site
                {
                    OFFSET 0.0 0.0 18.164512634277344
                }
            }
        }
    }
    JOINT LeftUpLeg
    {
        OFFSET 13.234065055847168 0.0 0.0
        CHANNELS 3 Zrotation Xrotation Yrotation
        JOINT LeftLeg
        {
            OFFSET 0.0 -33.876686096191406 0.0
            CHANNELS 3 Zrotation Xrotation Yrotation
            JOINT LeftFoot
            {
                OFFSET 0.0 -45.411277770996094 0.0
                CHANNELS 3 Zrotation Xrotation Yrotation
                End Site
                {
                    OFFSET 0.0 0.0 18.164512634277344
                }
            }
        }
    }
    JOINT Spine
    {
        OFFSET 0.0 23.083913803100586 0.0
        CHANNELS 3 Zrotation Xrotation Yrotation
        JOINT Spine3
        {
            OFFSET 0.0 25.31319236755371 0.0
            CHANNELS 3 Zrotation Xrotation Yrotation
            JOINT Neck
            {
                OFFSET 0.0 10.965160369873047 0.0
                CHANNELS 3 Zrotation Xrotation Yrotation
                End Site
                {
                    OFFSET 0.0 4.386064052581787 0.0
                }
            }
            JOINT LeftArm
            {
                OFFSET 14.50974178314209 0.0 0.0
                CHANNELS 3 Zrotation Xrotation Yrotation
                JOINT LeftForeArm
                {
                    OFFSET 27.493026733398438 0.0 0.0
                    CHANNELS 3 Zrotation Xrotation Yrotation
                    JOINT LeftHand
                    {
                        OFFSET 19.45329475402832 0.0 0.0
                        CHANNELS 3 Zrotation Xrotation Yrotation
                        End Site
                        {
                            OFFSET 7.781317710876465 0.0 0.0
                        }
                    }
                }
            }
            JOINT RightArm
            {
                OFFSET -14.50974178314209 0.0 0.0
                CHANNELS 3 Zrotation Xrotation Yrotation
                JOINT RightForeArm
                {
                    OFFSET -27.493026733398438 0.0 0.0
                    CHANNELS 3 Zrotation Xrotation Yrotation
                    JOINT RightHand
                    {
                        OFFSET -19.45329475402832 0.0 0.0
                        CHANNELS 3 Zrotation Xrotation Yrotation
                        End Site
                        {
                            OFFSET -7.781317710876465 0.0 0.0
                        }
                    }
                }
            }
        }
    }
}
MOTION
Frames: 9
Frame Time: 0.03333333333333333
-0.00016487874381709844 63.72376251220703 -0.0009503315668553114 -0.4314167248170832 -7.187257467606152 -19.27887220222424 -4.638139625973378 -46.76010230579735 -2.582825553603086 1.5310234346464573 73.47754101676183 0.8600586268660096 7.951386703658792e-16 -8.276074308844047e-33 -1.1927080055488188e-15 1.9677417409099538 -46.90337975761728 2.2541821480237574 -9.748756526770732 73.82776475607722 7.34055348825887 0.0 0.0 -5.466578358765419e-16 17.461632964748762 26.61515310798573 -8.558150835547583 1.6912846872188543e-06 1.5607908108776118e-06 -2.341278598050787 12.62133885873049 -4.174651087748656 177.96456448885257 107.87514080737326 -8.978458810998475 -154.0949788288086 9.210056600733842e-07 3.42337138787109e-06 110.57161463829625 0.0 0.0 0.0 -122.45847299642257 -14.77991228835705 152.24310337853865 -7.044867808612562e-07 1.6106009283068956e-06 -109.40658540766134 0.0 6.361109362927033e-15 0.0
-0.0001567942090332508 63.72377395629883 -0.0009552935953252017 -0.299313201716125 -6.994973617144559 -19.362981446101305 -4.5244753705786644 -46.93646259608481 -2.4621101717592104 1.1578609803643218 73.6605161520236 1.0967837041570754 0.0 0.0 -9.939233379573489e-17 1.9783910509093134 -47.0306385261268 2.3116801316586484 -9.758485986786354 73.64426779871881 7.300670819165438 -3.9756933518293955e-16 -4.969616689786744e-17 -1.5405811738338907e-15 17.45741134063555 26.426474163499456 -8.530417941631665 2.9595066260009774e-06 -8.29796129433455e-07 -2.3072427749204323 12.963884795102944 -4.207187375528137 178.5790349258714 107.76486953041524 -8.864419768716747 -154.1492411893798 -3.7637102683214136e-07 -6.041247295143533e-07 110.01505056833315 3.1805546814635168e-15 0.0 0.0 -122.27312765737625 -14.619377093924895 152.24524749080632 -4.577689706314999e-06 -2.8288888141196417e-06 -109.632152202633 0.0 0.0 0.0
-0.0001651853381190449 63.72377395629883 -0.0009538282174617052 -0.2636199597035635 -6.893477478754605 -19.489489691015258 -4.376402385164906 -47.01157331489144 -2.3335757790008973 1.0827600332219613 73.75944373712193 1.0488596586273498 -7.951386703658792e-16 3.1805546814635168e-15 -9.93923337957349e-16 2.1281389970881692 -47.04500528760215 2.4450566996255128 -9.990184000664115 73.69462267940258 7.407220850457393 3.9756933518293955e-16 2.069018577211012e-33 5.963540027744093e-16 17.628857980666588 26.329995848327865 -8.600061457055894 -7.524030690729733e-07 -2.8811678090968086e-07 -2.297855870800001 13.198784935556352 -3.9555214326627266 179.03953288900135 107.42173610765663 -8.703498112604713 -154.11742467821864 -4.922472942691376e-07 2.5805279982082535e-06 109.38822572902 0.0 6.3611093629270335e-15 0.0 -122.47349431904446 -14.547733368419712 152.37296575867072 -1.1366322732887725e-06 7.28835557677509e-07 -108.86679838990379 0.0 3.180554681463516e-15 0.0
-0.0001745682384353131 63.723777770996094 -0.0009566459921188653 -0.16896987818423598 -6.842012635038196 -19.621468951363966 -4.204795459081587 -46.953212236601594 -2.177204031380816 0.39855642927614343 73.62774995246183 1.569023868482597 -1.9828094698272196e-33 9.93923337957349e-17 2.2860236773019026e-15 2.151741014661059 -46.87822293788591 2.484237566364469 -10.359433892572968 73.48055747142567 7.705834490869659 2.586273221513765e-34 -4.969616689786745e-17 5.963540027744094e-16 17.680643943458744 26.26131680215445 -8.62342506374306 -4.6121983875161727e-07 -8.55703232652379e-07 -2.300229401275137 13.274742044265205 -3.7567622565581953 179.06078107072773 107.09797600903225 -8.576081149984114 -154.01234552431222 2.55596364105243e-06 -8.313199759172719e-07 108.97199116342532 0.0 0.0 0.0 -122.0623601924987 -14.285002694041179 152.50547107267818 -2.713760920274474e-06 -3.470708259333742e-07 -108.7038704067367 6.3611093629270335e-15 -3.531125038440127e-31 -6.3611093629270335e-15
-0.00018089877266902477 63.723777770996094 -0.0009575773146934807 0.05088417685397116 -6.778803583985553 -19.568793452499158 -4.438612776105252 -46.958672007534695 -2.3149512930866667 0.3212186643889468 73.40682668477993 1.764044123704327 0.0 0.0 3.4787316828507206e-15 1.8519512910126048 -47.0229065873933 2.3040088279916557 -10.530842227136032 73.54138273974999 8.04506038341056 1.6810775939839472e-32 -3.2302508483613835e-15 5.963540027744093e-16 17.70329838731386 26.128936517452246 -8.616587907936244 -8.00242257916518e-07 -1.1924281061494063e-07 -2.2565552591125027 13.42731345024141 -3.5177834823465624 179.34802603598033 106.7824853056793 -8.357038870524583 -154.03189838341785 1.5707282400161438e-06 5.404862712503633e-07 108.54792907217436 3.1805546814635168e-15 6.3611093629270335e-15 -1.7655625192200634e-31 -122.03599125532442 -14.090102491561492 152.64184687617532 -2.9754880845982155e-07 7.973392547616703e-07 -108.02317352114643 -6.3611093629270335e-15 6.3611093629270335e-15 3.531125038440127e-31
-0.00017833913443610072 63.7237663269043 -0.0009575711446814239 0.14804473693441664 -6.687345193504079 -19.44851562170132 -4.530854011979333 -46.80117227329984 -2.3014413197669934 0.44835257422337443 73.09602469800258 1.6388772911928147 6.034637516865451e-34 9.939233379573489e-17 -6.957463365701442e-16 1.8365572416373077 -46.88196903092415 2.3623329276413148 -10.18146430956838 73.15311081816522 7.631565894906907 3.975693351829396e-16 2.2414367919785963e-33 6.460501696722769e-16 17.97717262700045 26.177189044031426 -8.812997496040662 -1.621488713155117e-06 -6.129483231154213e-07 -2.207272810570786 13.507736532606975 -3.7431210261432475 179.40512045009586 107.26944716896905 -8.849612265110276 -153.95770761947355 2.10080760139287e-06 2.6061726466333403e-06 108.35535791959887 3.1805546814635168e-15 0.0 0.0 -122.26290733115718 -14.01744867001199 152.45902777996395 -1.4521466236022545e-06 -5.090729436108895e-07 -108.23609918783498 -1.7655625192200634e-31 -3.180554681463516e-15 -6.361109362927032e-15
-0.0001695832033874467 63.72374725341797 -0.0009565417421981692 0.2118920757374259 -6.635984742882885 -19.40486892368467 -4.511470984599162 -46.82658611195619 -2.254018028089736 0.48007184635189826 73.10062844574885 1.5642782615630213 6.034637516865451e-34 9.93923337957349e-17 -6.957463365701443e-16 1.8122280218444453 -46.928659273995066 2.380464630656856 -9.765303138193438 73.11271320002422 7.2183389161181095 -3.975693351829396e-16 -5.0001282282599455e-33 1.441188840038156e-15 18.25186259784402 26.186331261391196 -8.971689458355586 -2.546930543192903e-07 1.4149300400493547e-07 -2.1322320548939144 13.418225492356104 -3.724982410141195 179.32261726042756 107.50228633184648 -9.331962126260574 -153.9479508647658 -2.3114423309675044e-08 -5.080226668850991e-06 108.07732077506229 0.0 0.0 -3.1805546814635168e-15 -122.4287142361844 -14.043848961488218 152.255299829628 -2.6814899405953417e-07 -3.6495136511595205e-06 -108.69470221566026 -6.3611093629270335e-15 0.0 0.0
-0.00016963131201919168 63.7237434387207 -0.0009567964589223266 0.21362277712743716 -6.627519573764342 -19.45543082263469 -4.444093601067802 -46.9918334745208 -2.2086991945432555 0.26283160000967165 73.26123228700641 1.7216222661296017 7.951386703658792e-16 7.58640144977371e-33 1.0933156717530838e-15 1.824436005508324 -47.16111155556121 2.4004597763857944 -9.59046781376235 73.27967227935187 7.056458127949937 3.9756933518293955e-16 -4.9696166897867443e-17 -4.9696166897867443e-17 18.473488778936183 26.221086677027877 -9.09181208042864 4.921795369894634e-07 1.5014107159010107e-06 -2.0972967980644874 13.372641897983726 -3.6169522677691526 179.0394408493772 108.04091580310451 -9.99272413669787 -154.04097084360598 1.6427576962605713e-06 2.354514890871028e-06 107.99045468437134 1.7655625192200634e-31 -6.3611093629270335e-15 3.1805546814635168e-15 -122.90300612320036 -14.283778508432198 152.04426856667612 3.500923164473917e-06 -2.3322484655204787e-06 -108.52640376136304 0.0 0.0 0.0
-0.00017199300054926425 63.72376251220703 -0.000965206534601748 0.2155657365540093 -6.581354298703792 -19.58178308964739 -4.223072637394275 -46.99046999494033 -2.050110480006052 0.0058790921966929924 73.05682040115593 1.8244390769146082 -8.620910738379216e-35 9.93923337957349e-17 9.93923337957349e-17 2.191961006582719 -47.06603119914966 2.663106127738621 -9.731377828099804 73.27533044163387 6.950589957153374 7.951386703658794e-16 -3.1805546814635176e-15 -1.1430118386509515e-15 18.67954658736626 26.22672955584488 -9.191983626953373 3.5368467749499536e-07 -2.1522417213052816e-06 -1.9598703441079268 13.569426041392287 -3.3310062262051114 179.03537196642654 108.1609472524765 -10.27050926590506 -154.10414117336512 2.0495876112132214e-06 2.561257040890253e-06 107.50911182097053 -9.54166404439055e-15 0.0 0.0 -122.39156810933852 -13.984766644946498 152.16936742468363 4.7952346942129934e-08 -2.7712383599461965e-06 -108.8745085123316 0.0 3.1805546814635168e-15 0.0
